<?xml version="1.0" encoding="UTF-8" standalone="no"?>
<!DOCTYPE svg PUBLIC "-//W3C//DTD SVG 1.1//EN" "http://www.w3.org/Graphics/SVG/1.1/DTD/svg11.dtd">
<!-- Created with Vectornator (http://vectornator.io/) -->
<svg height="100%" stroke-miterlimit="10" style="fill-rule:nonzero;clip-rule:evenodd;stroke-linecap:round;stroke-linejoin:round;" version="1.1" viewBox="0 0 2000 324" width="100%" xml:space="preserve" xmlns="http://www.w3.org/2000/svg" xmlns:xlink="http://www.w3.org/1999/xlink">
<defs>
<clipPath id="TextBounds">
<rect height="329.066" width="1897.42" x="46.9542" y="5.62567"/>
</clipPath>
</defs>
<clipPath id="ArtboardFrame">
<rect height="324" width="2000" x="0" y="0"/>
</clipPath>
<g clip-path="url(#ArtboardFrame)" id="Layer-1">
<g opacity="0">
<path d="M1955.08 1.95312C1316.76-3.95121 678.385 2.27964 40.0391 2.92969C24.794 2.94521 0.114119 25.603 0 40.0391C-0.645875 121.742-0.645875 203.453 0 285.156C0.10203 298.063 22.7576 322.253 35.1562 322.266C678.385 322.916 1321.61 322.916 1964.84 322.266C1976.87 322.253 1998.93 297.251 1999.02 285.156C1999.67 203.453 1999.67 121.742 1999.02 40.0391C1998.86 19.909 1972.25 2.11196 1955.08 1.95312Z" fill="#e73653" fill-rule="nonzero" opacity="1" stroke="none"/>
<path d="M1333.01 75.1953C1256.42 80.2928 1235.34 180.656 1287.11 232.422C1303.62 248.936 1332.22 250 1353.52 250C1404.12 250 1423.83 198.815 1423.83 156.25C1423.83 143.957 1421.12 123.016 1413.09 112.305C1389.94 81.439 1371.16 72.656 1333.01 75.1953Z" fill="#fdf5f9" fill-rule="nonzero" opacity="1" stroke="none"/>
<path d="M1670.9 75.1953C1589.52 80.1213 1575.33 182.749 1627.93 235.352C1642.21 249.636 1673.5 250 1690.43 250C1746.02 250 1760.74 193.959 1760.74 149.414C1760.74 138.475 1756.94 120.584 1750 111.328C1727.17 80.8843 1707.96 72.9521 1670.9 75.1953Z" fill="#fdf5f9" fill-rule="nonzero" opacity="1" stroke="none"/>
<path d="M1008.79 75.1953C929.739 81.5978 913.005 181.56 965.82 234.375C981.063 249.618 1011.64 250 1030.27 250C1085.47 250 1099.61 193.043 1099.61 149.414C1099.61 138.475 1095.81 120.584 1088.87 111.328C1065.62 80.3278 1046.47 72.1431 1008.79 75.1953Z" fill="#fdf5f9" fill-rule="nonzero" opacity="1" stroke="none"/>
<path d="M791.992 78.125C790.611 78.1281 789.087 79.6738 789.062 81.0547C788.103 135.734 788.103 190.438 789.062 245.117C789.087 246.498 790.616 247.935 791.992 248.047C803.024 248.941 814.145 248.661 825.195 248.047C843.575 247.026 810.143 185.824 829.102 183.594C833.951 183.023 838.934 182.791 843.75 183.594C846.964 184.129 871.114 225.616 875 231.445C876.738 234.052 882.857 247.765 885.742 248.047C898.053 249.248 910.497 248.665 922.852 248.047C923.771 248.001 924.581 246.987 924.805 246.094C925.443 243.542 917.5 234.648 916.016 232.422C906.417 218.025 896.777 203.534 886.719 189.453C885.35 187.537 877.213 177.932 877.93 175.781C881.61 164.74 900.936 161.881 904.297 148.437C924.137 69.0776 845.823 78.0049 791.992 78.125Z" fill="#fdf5f9" fill-rule="nonzero" opacity="1" stroke="none"/>
<path d="M178.711 75.1953C92.8775 80.5512 65.1113 176.439 125 236.328C141.462 252.79 181.205 251.143 199.219 249.023C208.417 247.941 224.336 246.601 232.422 241.211C233.571 240.445 235.306 239.662 235.352 238.281C236.295 209.977 235.988 181.633 235.352 153.32C235.331 152.4 234.319 151.394 233.398 151.367C211.598 150.735 189.769 150.735 167.969 151.367C167.048 151.394 166.075 152.402 166.016 153.32C165.408 162.741 165.408 172.22 166.016 181.641C166.687 192.044 197.592 175.151 198.242 185.547C198.851 195.293 198.851 205.097 198.242 214.844C197.872 220.772 186.564 217.079 180.664 217.773C164.938 219.624 150.252 214.613 141.602 200.195C136.969 192.474 135.442 181.649 134.766 172.852C131.479 130.122 148.67 107.422 192.383 107.422C199.709 107.422 215.774 117.687 221.68 116.211C226.262 115.065 235.22 86.3601 232.422 84.9609C216.919 77.2097 195.492 74.1482 178.711 75.1953Z" fill="#fdf5f9" fill-rule="nonzero" opacity="1" stroke="none"/>
<path d="M643.555 78.125C642.634 78.1383 641.612 79.1575 641.602 80.0781C640.958 135.413 640.958 190.759 641.602 246.094C641.612 247.014 642.635 247.997 643.555 248.047C654.931 248.662 666.358 248.662 677.734 248.047C678.654 247.997 679.656 247.014 679.687 246.094C680.316 227.55 679.059 208.974 679.687 190.43C679.942 182.919 694.637 188.727 702.148 188.477C711.002 188.181 720.274 185.914 728.516 182.617C756.465 171.438 759.766 146.592 759.766 120.117C759.766 95.2935 730.557 79.6846 708.984 79.1016C687.18 78.5123 665.365 77.8089 643.555 78.125Z" fill="#fdf5f9" fill-rule="nonzero" opacity="1" stroke="none"/>
<path d="M403.32 78.125C402.401 78.1747 401.382 79.1575 401.367 80.0781C400.727 118.81 401.057 157.553 401.367 196.289C401.88 260.335 494.914 260.946 529.297 226.562C536.66 219.199 540.853 204.202 541.016 194.336C541.634 156.905 541.992 119.468 541.992 82.0312C541.992 72.2072 509.009 77.95 505.859 78.125C504.94 78.1761 503.923 79.1576 503.906 80.0781C503.267 115.88 504.21 151.694 503.906 187.5C503.688 213.274 485.032 217.773 462.891 217.773C459.574 217.773 452.849 215.165 450.195 212.891C444.369 207.896 440.559 201.206 440.43 193.359C439.806 155.603 440.413 117.828 439.453 80.0781C439.43 79.1577 438.419 78.1747 437.5 78.125C426.123 77.51 414.697 77.51 403.32 78.125Z" fill="#fdf5f9" fill-rule="nonzero" opacity="1" stroke="none"/>
<path d="M262.695 207.031C262.695 217.448 261.806 227.903 262.695 238.281C263.31 245.457 295.082 248.789 298.828 249.023C325.396 250.684 353.894 249.044 369.141 223.633C374.233 215.145 374.023 198.413 374.023 190.43C374.023 156.05 322.738 150.863 303.711 131.836C297.977 126.102 302.331 112.271 309.57 109.375C325.163 103.138 345.87 109.947 360.352 117.187C363.447 114.092 374.516 93.2753 373.047 88.8672C370.851 82.2784 343.711 77.876 337.891 77.1484C309.538 73.6044 292.179 76.962 272.461 96.6797C264.442 104.698 264.648 123.952 264.648 132.812C264.648 168.101 315.424 173.822 334.961 193.359C338.216 196.615 336.914 202.428 336.914 207.031C336.914 218.494 314.367 218.75 308.594 218.75C295.69 218.75 273.959 203.277 262.695 207.031Z" fill="#fdf5f9" fill-rule="nonzero" opacity="1" stroke="none"/>
<path d="M1523.44 75.1953C1499.27 77.0787 1484.1 85.2399 1466.8 102.539C1434.87 134.462 1443.19 213.752 1481.45 239.258C1501.74 252.786 1533.44 252.627 1555.66 247.07C1557.92 246.505 1572.05 243.587 1572.27 240.234C1572.87 230.814 1572.87 221.335 1572.27 211.914C1572.21 210.995 1571.14 210.373 1570.31 209.961C1569.39 209.501 1530.08 218.75 1526.37 218.75C1491.05 218.75 1487.3 181.152 1487.3 154.297C1487.3 124.785 1506.92 107.422 1535.16 107.422C1539.78 107.422 1564.68 118.463 1565.43 118.164C1569.92 116.369 1570.72 107.385 1572.27 103.516C1573.34 100.826 1579.02 91.5668 1578.12 88.8672C1575.36 80.5753 1528.18 74.8259 1523.44 75.1953Z" fill="#fdf5f9" fill-rule="nonzero" opacity="1" stroke="none"/>
<path d="M0 0C0 21.4844 0 21.4844 0 42.9687C1.46484 42.4805 1.46484 42.4805 2.92969 41.9922C2.92969 26.0508 22.9699 5.87576 39.0625 5.85937C677.409 5.20933 1315.76 5.85838 1954.1 4.88281C1955.02 4.88141 1955.4 3.58073 1956.05 2.92969C1955.08 1.95312 1954.51 0.0020685 1953.12 0C1302.08-0.975099 651.042 0 0 0Z" fill="#f4ced2" fill-rule="nonzero" opacity="1" stroke="none"/>
<path d="M1118.16 78.125C1108.16 79.5905 1115.56 98.3073 1116.21 108.398C1116.27 109.317 1117.24 110.31 1118.16 110.352C1131.82 110.972 1145.52 109.731 1159.18 110.352C1160.1 110.393 1161.12 111.384 1161.13 112.305C1161.77 156.571 1160.18 200.857 1161.13 245.117C1161.16 246.498 1162.69 247.935 1164.06 248.047C1175.09 248.941 1186.21 248.661 1197.27 248.047C1198.18 247.996 1199.21 247.014 1199.22 246.094C1199.86 201.502 1198.58 156.896 1199.22 112.305C1199.23 111.384 1200.25 110.393 1201.17 110.352C1214.83 109.731 1228.55 111.261 1242.19 110.352C1252.3 109.677 1245.79 90.194 1245.12 80.0781C1245.06 79.1594 1244.08 78.1392 1243.16 78.125C1201.5 77.484 1159.39 72.0864 1118.16 78.125Z" fill="#fdf5f9" fill-rule="nonzero" opacity="1" stroke="none"/>
<path d="M1794.92 78.125C1794 78.1747 1792.98 79.1575 1792.97 80.0781C1792.33 135.087 1792.01 190.113 1792.97 245.117C1792.99 246.498 1794.52 248.008 1795.9 248.047C1829.74 248.996 1863.61 248.686 1897.46 248.047C1898.38 248.029 1899.35 247.012 1899.41 246.094C1900.02 236.999 1900.02 227.844 1899.41 218.75C1899.15 214.762 1866.93 216.797 1863.28 216.797C1853.8 216.797 1842.33 217.684 1833.01 215.82C1832.1 215.64 1831.07 214.788 1831.05 213.867C1830.41 169.275 1831.7 124.67 1831.05 80.0781C1831.04 79.1575 1830.02 78.1747 1829.1 78.125C1817.72 77.51 1806.3 77.51 1794.92 78.125Z" fill="#fdf5f9" fill-rule="nonzero" opacity="1" stroke="none"/>
<path d="M1009.77 105.469C965.421 111.625 964.159 183.886 992.187 211.914C1000.35 220.076 1017.85 219.727 1027.34 219.727C1062.87 219.727 1061.52 166.962 1061.52 146.484C1061.52 115.581 1034.78 101.996 1009.77 105.469Z" fill="#e96688" fill-rule="nonzero" opacity="1" stroke="none"/>
<path d="M1670.9 105.469C1626.1 110.283 1625.17 183.769 1653.32 211.914C1661.48 220.076 1678.98 219.727 1688.48 219.727C1716.03 219.727 1720.62 185.386 1722.66 166.016C1726.97 124.997 1709.64 101.305 1670.9 105.469Z" fill="#e96688" fill-rule="nonzero" opacity="1" stroke="none"/>
<path d="M1378.91 139.648C1372.4 141.494 1360.62 141.69 1353.52 142.578C1348.05 143.262 1343.06 146.562 1338.87 147.461C1327.15 149.971 1314.73 148.614 1303.71 151.367C1290.82 154.589 1298.27 175.5 1300.78 185.547C1307.33 211.735 1325.05 219.727 1350.59 219.727C1375.68 219.727 1383.56 190.213 1384.77 170.898C1385 167.11 1390.51 136.356 1378.91 139.648Z" fill="#e96688" fill-rule="nonzero" opacity="1" stroke="none"/>
<path d="M1333.98 105.469C1313.96 106.816 1303.9 124.827 1300.78 143.555C1300.3 146.461 1298.33 151.729 1301.76 154.297C1302.13 154.573 1342.62 147.051 1343.75 146.484C1354.39 141.164 1371.14 145.879 1381.84 141.602C1387.42 139.368 1378.52 125.035 1375.98 122.07C1362.51 106.36 1355.75 104.004 1333.98 105.469Z" fill="#e73653" fill-rule="nonzero" opacity="1" stroke="none"/>
<path d="M679.687 107.422C678.767 107.459 677.77 108.455 677.734 109.375C677.109 125.313 677.109 141.288 677.734 157.227C677.972 163.288 696.839 158.925 701.172 158.203C728.998 153.566 732.465 110.489 702.148 108.398C694.672 107.883 687.176 107.122 679.687 107.422Z" fill="#e96688" fill-rule="nonzero" opacity="1" stroke="none"/>
<path d="M827.148 107.422C826.229 107.464 825.235 108.455 825.195 109.375C824.573 123.684 824.573 138.034 825.195 152.344C825.422 157.563 845.248 154.583 851.562 153.32C881.306 147.372 874.847 110.485 846.68 108.398C840.179 107.917 833.66 107.126 827.148 107.422Z" fill="#e96688" fill-rule="nonzero" opacity="1" stroke="none"/>
<path d="M1953.12 0C1957.67 7.58068 1968.25 6.21393 1975.59 11.7187C1982.02 16.5463 1991.29 24.6473 1994.14 33.2031C1995.46 37.1503 1994.68 40.5821 1998.05 43.9453C1998.54 21.9727 1998.54 21.9727 1999.02 0C1976.07 0 1976.07 0 1953.12 0Z" fill="#fdf5f9" fill-rule="nonzero" opacity="1" stroke="none"/>
<path d="M0.976562 282.227C0.488281 302.246 0.488281 302.246 0 322.266C18.5547 322.266 18.5547 322.266 37.1094 322.266C36.6211 320.801 36.6211 320.801 36.1328 319.336C13.0022 319.336 12.1518 293.402 0.976562 282.227Z" fill="#fdf5f9" fill-rule="nonzero" opacity="1" stroke="none"/>
<path d="M1998.05 282.227C1995.01 285.26 1996.37 289.26 1994.14 292.969C1989.62 300.499 1983.93 307.085 1977.54 313.477C1972.81 318.207 1965.23 316.994 1960.94 321.289C1979.98 321.777 1979.98 321.777 1999.02 322.266C1998.54 302.246 1998.54 302.246 1998.05 282.227Z" fill="#fdf5f9" fill-rule="nonzero" opacity="1" stroke="none"/>
</g>
<path d="M53.3225 3.49282L1948.19 3.49282C1975.76 3.49282 1998.11 25.8439 1998.11 53.4153L1998.11 271.162C1998.11 298.733 1975.76 321.085 1948.19 321.085L53.3225 321.085C25.7511 321.085 3.40002 298.733 3.40002 271.162L3.40002 53.4153C3.40002 25.8439 25.7511 3.49282 53.3225 3.49282Z" fill="#646464" fill-rule="nonzero" opacity="1" stroke="none"/>
<g fill="#ffffff" opacity="1" stroke="none">
<path clip-path="url(#TextBounds)" d="M218.491 233.302C197.517 244.51 174.061 250.114 148.123 250.114C134.994 250.114 122.945 247.992 111.978 243.75C101.01 239.507 91.5639 233.502 83.6384 225.737C75.713 217.972 69.5087 208.645 65.0256 197.758C60.5426 186.87 58.301 174.782 58.301 161.493C58.301 147.884 60.5426 135.515 65.0256 124.387C69.5087 113.26 75.713 103.773 83.6384 95.9278C91.5639 88.0824 101.01 82.0382 111.978 77.7953C122.945 73.5524 134.994 71.4309 148.123 71.4309C161.092 71.4309 173.26 72.992 184.628 76.1142C195.996 79.2363 206.163 84.8001 215.129 92.8056L192.794 115.381C187.35 110.098 180.745 106.015 172.98 103.133C165.215 100.251 157.009 98.8098 148.363 98.8098C139.557 98.8098 131.591 100.371 124.467 103.493C117.342 106.615 111.217 110.938 106.094 116.462C100.97 121.986 97.0076 128.43 94.2057 135.795C91.4038 143.16 90.0028 151.086 90.0028 159.572C90.0028 168.698 91.4038 177.104 94.2057 184.789C97.0076 192.474 100.97 199.119 106.094 204.723C111.217 210.327 117.342 214.73 124.467 217.932C131.591 221.134 139.557 222.735 148.363 222.735C156.048 222.735 163.293 222.015 170.098 220.574C176.903 219.133 182.947 216.891 188.23 213.849L188.23 173.741L153.406 173.741L153.406 146.362L218.491 146.362L218.491 233.302Z"/>
<path clip-path="url(#TextBounds)" d="M337.613 112.259C334.411 107.616 330.128 104.213 324.764 102.052C319.401 99.8905 313.757 98.8098 307.833 98.8098C304.31 98.8098 300.908 99.2101 297.626 100.011C294.343 100.811 291.381 102.092 288.74 103.853C286.098 105.614 283.976 107.896 282.375 110.698C280.774 113.5 279.974 116.822 279.974 120.665C279.974 126.429 281.975 130.832 285.978 133.874C289.98 136.916 294.944 139.558 300.868 141.799C306.792 144.041 313.276 146.202 320.321 148.284C327.366 150.365 333.851 153.247 339.775 156.93C345.699 160.612 350.662 165.496 354.665 171.58C358.668 177.664 360.669 185.75 360.669 195.837C360.669 204.963 358.988 212.928 355.626 219.733C352.263 226.538 347.74 232.182 342.056 236.665C336.372 241.148 329.768 244.51 322.243 246.752C314.717 248.993 306.792 250.114 298.466 250.114C287.899 250.114 277.732 248.353 267.965 244.83C258.199 241.308 249.793 235.384 242.748 227.058L265.564 204.963C269.246 210.567 274.089 214.93 280.094 218.052C286.098 221.174 292.462 222.735 299.187 222.735C302.709 222.735 306.232 222.255 309.754 221.294C313.276 220.333 316.479 218.892 319.361 216.971C322.243 215.05 324.564 212.608 326.325 209.646C328.087 206.684 328.967 203.282 328.967 199.439C328.967 193.195 326.966 188.391 322.963 185.029C318.96 181.667 313.997 178.825 308.073 176.503C302.149 174.182 295.664 171.98 288.619 169.899C281.575 167.817 275.09 164.975 269.166 161.373C263.242 157.77 258.279 152.967 254.276 146.963C250.273 140.959 248.272 132.913 248.272 122.826C248.272 114.02 250.073 106.415 253.675 100.011C257.278 93.6062 262.001 88.2825 267.845 84.0396C273.689 79.7967 280.374 76.6345 287.899 74.5531C295.424 72.4717 303.109 71.4309 310.955 71.4309C319.921 71.4309 328.607 72.7919 337.013 75.5138C345.419 78.2356 352.984 82.7187 359.708 88.963L337.613 112.259Z"/>
<path clip-path="url(#TextBounds)" d="M528.304 183.348C528.304 193.595 526.543 202.841 523.021 211.087C519.498 219.333 514.695 226.338 508.611 232.101C502.527 237.865 495.322 242.309 486.996 245.431C478.67 248.553 469.624 250.114 459.857 250.114C450.091 250.114 441.044 248.553 432.719 245.431C424.393 242.309 417.148 237.865 410.984 232.101C404.819 226.338 400.016 219.333 396.574 211.087C393.131 202.841 391.41 193.595 391.41 183.348L391.41 75.7539L421.671 75.7539L421.671 182.387C421.671 186.55 422.311 190.913 423.592 195.476C424.873 200.039 426.995 204.242 429.957 208.085C432.919 211.928 436.841 215.09 441.725 217.571C446.608 220.053 452.652 221.294 459.857 221.294C467.062 221.294 473.106 220.053 477.99 217.571C482.873 215.09 486.796 211.928 489.758 208.085C492.72 204.242 494.841 200.039 496.122 195.476C497.403 190.913 498.044 186.55 498.044 182.387L498.044 75.7539L528.304 75.7539L528.304 183.348Z"/>
<path clip-path="url(#TextBounds)" d="M636.619 75.7539L693.778 75.7539C701.944 75.7539 709.829 76.5545 717.435 78.1556C725.04 79.7567 731.724 82.4385 737.488 86.2011C743.252 89.9637 747.855 95.0072 751.298 101.332C754.74 107.656 756.461 115.541 756.461 124.988C756.461 135.715 754.62 144.361 750.938 150.926C747.255 157.49 742.292 162.574 736.047 166.176C729.803 169.779 722.558 172.22 714.312 173.501C706.067 174.782 697.461 175.422 688.495 175.422L666.88 175.422L666.88 245.791L636.619 245.791L636.619 75.7539ZM685.132 149.485C689.455 149.485 693.938 149.325 698.582 149.004C703.225 148.684 707.508 147.723 711.43 146.122C715.353 144.521 718.555 142.12 721.037 138.917C723.519 135.715 724.76 131.232 724.76 125.468C724.76 120.184 723.639 115.982 721.397 112.859C719.156 109.737 716.274 107.336 712.751 105.654C709.229 103.973 705.306 102.893 700.983 102.412C696.66 101.932 692.497 101.692 688.495 101.692L666.88 101.692L666.88 149.485L685.132 149.485Z"/>
<path clip-path="url(#TextBounds)" d="M783.36 75.7539L842.441 75.7539C850.606 75.7539 858.492 76.5144 866.097 78.0355C873.702 79.5565 880.467 82.1583 886.391 85.8409C892.315 89.5234 897.038 94.4868 900.56 100.731C904.083 106.975 905.844 114.901 905.844 124.507C905.844 136.836 902.442 147.163 895.637 155.489C888.832 163.815 879.106 168.858 866.457 170.619L911.608 245.791L875.103 245.791L835.716 173.741L813.621 173.741L813.621 245.791L783.36 245.791L783.36 75.7539ZM837.157 147.803C841.48 147.803 845.803 147.603 850.126 147.203C854.449 146.803 858.411 145.842 862.014 144.321C865.616 142.8 868.538 140.478 870.78 137.356C873.022 134.234 874.142 129.871 874.142 124.267C874.142 119.304 873.102 115.301 871.02 112.259C868.939 109.217 866.217 106.935 862.855 105.414C859.492 103.893 855.77 102.893 851.687 102.412C847.604 101.932 843.641 101.692 839.799 101.692L813.621 101.692L813.621 147.803L837.157 147.803Z"/>
<path clip-path="url(#TextBounds)" d="M925.538 161.493C925.538 147.884 927.779 135.515 932.262 124.387C936.745 113.26 942.95 103.773 950.875 95.9278C958.801 88.0824 968.247 82.0382 979.215 77.7953C990.182 73.5524 1002.23 71.4309 1015.36 71.4309C1028.65 71.2708 1040.82 73.2322 1051.86 77.315C1062.91 81.3978 1072.44 87.3619 1080.44 95.2073C1088.45 103.053 1094.69 112.499 1099.18 123.547C1103.66 134.594 1105.9 146.923 1105.9 160.532C1105.9 173.821 1103.66 185.91 1099.18 196.797C1094.69 207.685 1088.45 217.051 1080.44 224.897C1072.44 232.742 1062.91 238.866 1051.86 243.269C1040.82 247.672 1028.65 249.954 1015.36 250.114C1002.23 250.114 990.182 247.992 979.215 243.75C968.247 239.507 958.801 233.502 950.875 225.737C942.95 217.972 936.745 208.645 932.262 197.758C927.779 186.87 925.538 174.782 925.538 161.493ZM957.239 159.572C957.239 168.698 958.64 177.104 961.442 184.789C964.244 192.474 968.207 199.119 973.331 204.723C978.454 210.327 984.578 214.73 991.703 217.932C998.828 221.134 1006.79 222.735 1015.6 222.735C1024.41 222.735 1032.41 221.134 1039.62 217.932C1046.82 214.73 1052.99 210.327 1058.11 204.723C1063.23 199.119 1067.2 192.474 1070 184.789C1072.8 177.104 1074.2 168.698 1074.2 159.572C1074.2 151.086 1072.8 143.16 1070 135.795C1067.2 128.43 1063.23 121.986 1058.11 116.462C1052.99 110.938 1046.82 106.615 1039.62 103.493C1032.41 100.371 1024.41 98.8098 1015.6 98.8098C1006.79 98.8098 998.828 100.371 991.703 103.493C984.578 106.615 978.454 110.938 973.331 116.462C968.207 121.986 964.244 128.43 961.442 135.795C958.64 143.16 957.239 151.086 957.239 159.572Z"/>
<path clip-path="url(#TextBounds)" d="M1169.55 103.133L1117.43 103.133L1117.43 75.7539L1251.92 75.7539L1251.92 103.133L1199.81 103.133L1199.81 245.791L1169.55 245.791L1169.55 103.133Z"/>
<path clip-path="url(#TextBounds)" d="M1263.45 161.493C1263.45 147.884 1265.69 135.515 1270.17 124.387C1274.66 113.26 1280.86 103.773 1288.79 95.9278C1296.71 88.0824 1306.16 82.0382 1317.13 77.7953C1328.09 73.5524 1340.14 71.4309 1353.27 71.4309C1366.56 71.2708 1378.73 73.2322 1389.78 77.315C1400.82 81.3978 1410.35 87.3619 1418.36 95.2073C1426.36 103.053 1432.61 112.499 1437.09 123.547C1441.57 134.594 1443.81 146.923 1443.81 160.532C1443.81 173.821 1441.57 185.91 1437.09 196.797C1432.61 207.685 1426.36 217.051 1418.36 224.897C1410.35 232.742 1400.82 238.866 1389.78 243.269C1378.73 247.672 1366.56 249.954 1353.27 250.114C1340.14 250.114 1328.09 247.992 1317.13 243.75C1306.16 239.507 1296.71 233.502 1288.79 225.737C1280.86 217.972 1274.66 208.645 1270.17 197.758C1265.69 186.87 1263.45 174.782 1263.45 161.493ZM1295.15 159.572C1295.15 168.698 1296.55 177.104 1299.35 184.789C1302.16 192.474 1306.12 199.119 1311.24 204.723C1316.37 210.327 1322.49 214.73 1329.62 217.932C1336.74 221.134 1344.71 222.735 1353.51 222.735C1362.32 222.735 1370.32 221.134 1377.53 217.932C1384.73 214.73 1390.9 210.327 1396.02 204.723C1401.14 199.119 1405.11 192.474 1407.91 184.789C1410.71 177.104 1412.11 168.698 1412.11 159.572C1412.11 151.086 1410.71 143.16 1407.91 135.795C1405.11 128.43 1401.14 121.986 1396.02 116.462C1390.9 110.938 1384.73 106.615 1377.53 103.493C1370.32 100.371 1362.32 98.8098 1353.51 98.8098C1344.71 98.8098 1336.74 100.371 1329.62 103.493C1322.49 106.615 1316.37 110.938 1311.24 116.462C1306.12 121.986 1302.16 128.43 1299.35 135.795C1296.55 143.16 1295.15 151.086 1295.15 159.572Z"/>
<path clip-path="url(#TextBounds)" d="M1589.35 115.621C1583.11 108.897 1577.07 104.414 1571.22 102.172C1565.38 99.9306 1559.49 98.8098 1553.57 98.8098C1544.76 98.8098 1536.8 100.371 1529.67 103.493C1522.55 106.615 1516.42 110.938 1511.3 116.462C1506.18 121.986 1502.21 128.43 1499.41 135.795C1496.61 143.16 1495.21 151.086 1495.21 159.572C1495.21 168.698 1496.61 177.104 1499.41 184.789C1502.21 192.474 1506.18 199.119 1511.3 204.723C1516.42 210.327 1522.55 214.73 1529.67 217.932C1536.8 221.134 1544.76 222.735 1553.57 222.735C1560.45 222.735 1567.14 221.094 1573.62 217.812C1580.11 214.529 1586.15 209.286 1591.76 202.081L1616.73 219.853C1609.05 230.42 1599.68 238.106 1588.63 242.909C1577.59 247.712 1565.82 250.114 1553.33 250.114C1540.2 250.114 1528.15 247.992 1517.18 243.75C1506.22 239.507 1496.77 233.502 1488.85 225.737C1480.92 217.972 1474.72 208.645 1470.23 197.758C1465.75 186.87 1463.51 174.782 1463.51 161.493C1463.51 147.884 1465.75 135.515 1470.23 124.387C1474.72 113.26 1480.92 103.773 1488.85 95.9278C1496.77 88.0824 1506.22 82.0382 1517.18 77.7953C1528.15 73.5524 1540.2 71.4309 1553.33 71.4309C1564.86 71.4309 1575.54 73.4723 1585.39 77.5552C1595.24 81.638 1604.4 88.5627 1612.89 98.3295L1589.35 115.621Z"/>
<path clip-path="url(#TextBounds)" d="M1628.02 161.493C1628.02 147.884 1630.26 135.515 1634.75 124.387C1639.23 113.26 1645.43 103.773 1653.36 95.9278C1661.28 88.0824 1670.73 82.0382 1681.7 77.7953C1692.67 73.5524 1704.71 71.4309 1717.84 71.4309C1731.13 71.2708 1743.3 73.2322 1754.35 77.315C1765.4 81.3978 1774.92 87.3619 1782.93 95.2073C1790.93 103.053 1797.18 112.499 1801.66 123.547C1806.14 134.594 1808.39 146.923 1808.39 160.532C1808.39 173.821 1806.14 185.91 1801.66 196.797C1797.18 207.685 1790.93 217.051 1782.93 224.897C1774.92 232.742 1765.4 238.866 1754.35 243.269C1743.3 247.672 1731.13 249.954 1717.84 250.114C1704.71 250.114 1692.67 247.992 1681.7 243.75C1670.73 239.507 1661.28 233.502 1653.36 225.737C1645.43 217.972 1639.23 208.645 1634.75 197.758C1630.26 186.87 1628.02 174.782 1628.02 161.493ZM1659.72 159.572C1659.72 168.698 1661.12 177.104 1663.93 184.789C1666.73 192.474 1670.69 199.119 1675.81 204.723C1680.94 210.327 1687.06 214.73 1694.19 217.932C1701.31 221.134 1709.28 222.735 1718.08 222.735C1726.89 222.735 1734.89 221.134 1742.1 217.932C1749.3 214.73 1755.47 210.327 1760.59 204.723C1765.72 199.119 1769.68 192.474 1772.48 184.789C1775.28 177.104 1776.68 168.698 1776.68 159.572C1776.68 151.086 1775.28 143.16 1772.48 135.795C1769.68 128.43 1765.72 121.986 1760.59 116.462C1755.47 110.938 1749.3 106.615 1742.1 103.493C1734.89 100.371 1726.89 98.8098 1718.08 98.8098C1709.28 98.8098 1701.31 100.371 1694.19 103.493C1687.06 106.615 1680.94 110.938 1675.81 116.462C1670.69 121.986 1666.73 128.43 1663.93 135.795C1661.12 143.16 1659.72 151.086 1659.72 159.572Z"/>
<path clip-path="url(#TextBounds)" d="M1837.2 75.7539L1867.47 75.7539L1867.47 218.412L1939.76 218.412L1939.76 245.791L1837.2 245.791L1837.2 75.7539Z"/>
</g>
<path d="M892.823 382.763L898.31 382.763L898.31 485.347L892.823 485.347L892.823 382.763Z" fill="#646464" fill-rule="nonzero" opacity="1" stroke="#646464" stroke-linecap="round" stroke-linejoin="round" stroke-width="3.5"/>
</g>
</svg>
